<?xml version="1.0" encoding="utf-8"?>
<!-- Generator: Adobe Illustrator 22.1.0, SVG Export Plug-In . SVG Version: 6.00 Build 0)  -->
<svg version="1.1" id="Layer_1" xmlns="http://www.w3.org/2000/svg" xmlns:xlink="http://www.w3.org/1999/xlink" x="0px" y="0px"
	 viewBox="0 0 512 512" style="enable-background:new 0 0 512 512;" xml:space="preserve">
<g>
	<title>adobe-dreamweaver</title>
	<g>
		<path d="M31,39.5v438.7h450V39.5L31,39.5z M49.7,58.2h412.5v401.2H49.7L49.7,58.2z M89.6,142.7c0-1.5,0.3-2.2,2.2-2.5
			c7.1-0.3,27.5-0.9,48.7-0.9c62.8,0,94,40.5,94,99.9c0,82.6-54.2,107.6-95.9,107.6c-15.8,0-38.7-0.3-47-0.6c-1.2,0-1.8-1-1.8-2.5
			v-201L89.6,142.7z M123.4,316.5c5.2,0.4,9.9,0.7,15.8,0.7c34.6,0,60.3-24.5,60.6-77c0.4-51.4-26.2-71.2-59.2-71.2
			c-6.5,0-11.8,0.4-17.1,0.7v146.9L123.4,316.5z M361.2,346c-2.2,0-2.8-0.8-3.1-2.6c-9.3-51.6-17.1-88.2-20.4-113.6h-0.3
			c-4,23-11.5,61.1-23.9,114c-0.6,1.9-1.2,2.4-2.7,2.4h-30.3c-2.2,0-2.8-0.3-3.4-2.2L244,196.2c-0.3-1.2,0.4-2.5,2.2-2.5h30.3
			c1.2,0,2.2,0.4,2.5,1.7c11.7,66.5,16.7,100.9,18.5,114.6h1.2c2.2-16.1,8.6-49.6,22.6-114c0.7-1.8,0.7-2.3,2.5-2.3h31.9
			c1.5,0,1.8,0.8,2.2,2.3c10.8,60.9,17.9,99.4,19.8,114.8h1c3-19.8,7.1-46.5,20.3-115.2c0.4-1.3,0.7-2,2.2-2h28.5
			c1.2,0,2.2,0.7,1.6,2.2l-36.8,148c-0.3,1.5-0.6,2.1-2.7,2.1L361.2,346z"/>
	</g>
</g>
</svg>
